<svg xmlns="http://www.w3.org/2000/svg" viewBox="0 0 1200 360" role="img" aria-labelledby="title desc">
  <title id="title">Research roadmap</title>
  <desc id="desc">A research roadmap from perception to multimodal foundation models and video world models, then to digital world interaction, code agents, and computer use agents.</desc>
  <defs>
    <marker id="arrow" viewBox="0 0 10 10" refX="8.5" refY="5" markerWidth="8" markerHeight="8" orient="auto">
      <path d="M 0 0 L 10 5 L 0 10 z" fill="#8b949e" />
    </marker>
    <style>
      .panel {
        fill: #fbfbfc;
      }

      .box {
        fill: #ffffff;
        stroke: #d8dee6;
        stroke-width: 1.8;
      }

      .primary-box {
        stroke: #b9c4d1;
      }

      .flow {
        fill: none;
        stroke: #8b949e;
        stroke-width: 2;
        stroke-linecap: round;
        stroke-linejoin: round;
        marker-end: url(#arrow);
      }

      .label {
        fill: #24292f;
        font-family: -apple-system, BlinkMacSystemFont, "Segoe UI", Helvetica, Arial, sans-serif;
        font-size: 26px;
        font-weight: 600;
      }

      .subtle {
        fill: #6a737d;
        font-size: 16px;
        font-weight: 500;
      }

      .blue {
        fill: #276ef1;
      }

      .red {
        fill: #d1242f;
      }
    </style>
  </defs>

  <rect class="panel" x="0" y="0" width="1200" height="360" rx="18" />

  <rect class="box primary-box" x="48" y="135" width="190" height="90" rx="12" />
  <text class="label" x="143" y="173" text-anchor="middle">Perception</text>
  <text class="subtle" x="143" y="202" text-anchor="middle">visual signals</text>

  <rect class="box" x="320" y="62" width="255" height="86" rx="12" />
  <text class="label" x="447" y="99" text-anchor="middle">2D <tspan class="blue">M-FM</tspan></text>
  <text class="subtle" x="447" y="127" text-anchor="middle">multimodal foundation model</text>

  <rect class="box" x="320" y="212" width="255" height="86" rx="12" />
  <text class="label" x="447" y="249" text-anchor="middle">3D <tspan class="red">V-WM</tspan></text>
  <text class="subtle" x="447" y="277" text-anchor="middle">video world model</text>

  <rect class="box primary-box" x="655" y="135" width="255" height="90" rx="12" />
  <text class="label" x="782" y="173" text-anchor="middle">World Interaction</text>
  <text class="subtle" x="782" y="202" text-anchor="middle">digital environments</text>

  <rect class="box" x="1010" y="62" width="150" height="86" rx="12" />
  <text class="label" x="1085" y="113" text-anchor="middle">Code Agent</text>

  <rect class="box" x="990" y="212" width="190" height="86" rx="12" />
  <text class="label" x="1085" y="249" text-anchor="middle">Computer Use</text>
  <text class="label" x="1085" y="278" text-anchor="middle">Agent</text>

  <path class="flow" d="M 238 180 C 282 180 284 105 320 105" />
  <path class="flow" d="M 238 180 C 282 180 284 255 320 255" />
  <path class="flow" d="M 575 105 C 616 105 612 180 655 180" />
  <path class="flow" d="M 575 255 C 616 255 612 180 655 180" />
  <path class="flow" d="M 910 180 C 954 180 958 105 1010 105" />
  <path class="flow" d="M 910 180 C 954 180 958 255 990 255" />
</svg>
